<svg width="18" height="18" viewBox="0 0 18 18" fill="none" xmlns="http://www.w3.org/2000/svg">
<path d="M17.3346 4.41667H12.3346M4.0013 4.41667H0.667969M17.3346 13.5833H14.0013M5.66797 13.5833H0.667969M7.33464 7.33333C7.71766 7.33333 8.09693 7.25789 8.45079 7.11132C8.80466 6.96474 9.12619 6.7499 9.39703 6.47906C9.66787 6.20822 9.88271 5.88669 10.0293 5.53283C10.1759 5.17896 10.2513 4.79969 10.2513 4.41667C10.2513 4.03364 10.1759 3.65437 10.0293 3.30051C9.88271 2.94664 9.66787 2.62511 9.39703 2.35427C9.12619 2.08343 8.80466 1.86859 8.45079 1.72202C8.09693 1.57544 7.71766 1.5 7.33464 1.5C6.56109 1.5 5.81922 1.80729 5.27224 2.35427C4.72526 2.90125 4.41797 3.64312 4.41797 4.41667C4.41797 5.19021 4.72526 5.93208 5.27224 6.47906C5.81922 7.02604 6.56109 7.33333 7.33464 7.33333ZM10.668 16.5C11.4415 16.5 12.1834 16.1927 12.7304 15.6457C13.2773 15.0987 13.5846 14.3569 13.5846 13.5833C13.5846 12.8098 13.2773 12.0679 12.7304 11.5209C12.1834 10.974 11.4415 10.6667 10.668 10.6667C9.89442 10.6667 9.15256 10.974 8.60557 11.5209C8.05859 12.0679 7.7513 12.8098 7.7513 13.5833C7.7513 14.3569 8.05859 15.0987 8.60557 15.6457C9.15256 16.1927 9.89442 16.5 10.668 16.5Z" stroke="#BCBCBC" stroke-width="1.25" stroke-miterlimit="10" stroke-linecap="round" stroke-linejoin="round"/>
</svg>
