<svg width="27" height="25" viewBox="0 0 27 25" fill="none" xmlns="http://www.w3.org/2000/svg">
<path d="M20.085 0.638134L7.51007 3.12104C-0.940912 4.7836 -1.5268 9.20775 6.21169 12.9254L8.55182 14.0516C9.23241 14.3858 9.71258 15.0091 9.86211 15.7524L10.346 18.2919C11.9668 26.7227 16.3834 27.2928 20.1573 19.5373L25.7656 8.01172C28.2815 2.84137 25.726 -0.475693 20.085 0.638134ZM20.1051 7.76017L14.3697 12.1787C13.9342 12.5142 13.2964 12.4333 12.9627 12.0001C12.6291 11.567 12.7135 10.9296 13.1489 10.5942L18.8843 6.17559C19.3198 5.84011 19.9576 5.92107 20.2913 6.35419C20.6249 6.78731 20.5405 7.42469 20.1051 7.76017Z" fill="#E10BF4"/>
</svg>
