<svg width="24" height="24" viewBox="0 0 24 24" fill="none" xmlns="http://www.w3.org/2000/svg">
<path d="M12.0009 2C9.38094 2 7.25094 4.13 7.25094 6.75C7.25094 9.32 9.26094 11.4 11.8809 11.49C11.9609 11.48 12.0409 11.48 12.1009 11.49H12.1709C13.4003 11.449 14.5655 10.9315 15.4202 10.0469C16.2749 9.16234 16.7521 7.98004 16.7509 6.75C16.7509 4.13 14.6209 2 12.0009 2ZM17.0809 14.149C14.2909 12.289 9.74094 12.289 6.93094 14.149C5.66094 14.999 4.96094 16.149 4.96094 17.379C4.96094 18.609 5.66094 19.749 6.92094 20.589C8.32094 21.529 10.1609 21.999 12.0009 21.999C13.8409 21.999 15.6809 21.529 17.0809 20.589C18.3409 19.739 19.0409 18.599 19.0409 17.359C19.0309 16.129 18.3409 14.989 17.0809 14.149Z" fill="#E10BF4"/>
</svg>
